:FULLY-SPECIFIED
:FORCE-ALL-JOINTS-BE-3DOF
:DEGREES
178
root 8.23063 16.6368 -12.1359 7.46972 6.87405 -2.15869
lfemur -18.9567 6.05387 -15.249
ltibia 46.4484 -0 0
lfoot -3.54813 12.6212 0.0531168
ltoes -14.5655 0 0
rfemur -17.8714 2.75333 25.9818
rtibia 24.0007 -0 0
rfoot -14.653 2.03486 -0.034063
rtoes -12.9895 0 0
lowerback -5.08099 -0.467355 0.568896
upperback -1.33979 -0.712339 3.45976
thorax 1.54405 -0.353847 3.23572
lowerneck -17.9384 -7.04063 -14.5414
upperneck 14.661 -8.68838 14.807
head 8.86657 -3.53048 6.32635
lclavicle 2.61402e-14 3.18055e-15 0
lhumerus -46.7518 -11.9087 96.8417
lradius 26.9406 -0 0
lwrist 5.8799 0 0
lhand -4.41631 -20.3294 0.114223
lfingers 7.12502 -0 0
lthumb 21.3471 8.43208 0.0871288
rclavicle 2.61402e-14 3.18055e-15 0
rhumerus -42.1732 10.0991 -81.466
rradius 40.4251 -0 0
rwrist -21.567 0 0
rhand -29.8648 -27.4071 0.0221616
rfingers 7.12502 -0 0
rthumb -3.18672 -57.3517 0.0206013
179
root 8.23147 16.6343 -12.0098 7.46346 6.68907 -2.24024
lfemur -19.7944 5.88397 -15.3009
ltibia 45.6604 -0 0
lfoot -3.95468 12.58 0.055163
ltoes -14.6517 0 0
rfemur -17.1577 2.85426 26.1293
rtibia 23.5655 -0 0
rfoot -14.7704 2.12617 -0.0353734
rtoes -12.8562 0 0
lowerback -5.11885 -0.379012 0.627769
upperback -1.31617 -0.599451 3.45793
thorax 1.58439 -0.297553 3.20915
lowerneck -17.8842 -7.02756 -14.5392
upperneck 14.6664 -8.68044 14.8158
head 8.85769 -3.528 6.33118
lclavicle 2.61402e-14 3.18055e-15 0
lhumerus -46.851 -11.8465 96.8153
lradius 26.9639 -0 0
lwrist 5.99746 0 0
lhand -4.69239 -20.4597 0.11862
lfingers 7.12502 -0 0
lthumb 21.0817 8.32869 0.0904825
rclavicle 2.61402e-14 3.18055e-15 0
rhumerus -41.943 10.1354 -81.4518
rradius 40.8483 -0 0
rwrist -21.7632 0 0
rhand -29.9838 -27.4658 0.0230142
rfingers 7.12502 -0 0
rthumb -3.30159 -57.4082 0.0213938
180
root 8.23232 16.6317 -11.8836 7.45747 6.50408 -2.32173
lfemur -20.6316 5.71333 -15.3503
ltibia 44.8724 -0 0
lfoot -4.36123 12.5388 0.0569171
ltoes -14.738 0 0
rfemur -16.4436 2.95335 26.2782
rtibia 23.1302 -0 0
rfoot -14.8879 2.21748 -0.0364966
rtoes -12.7229 0 0
lowerback -5.15662 -0.29063 0.686583
upperback -1.29256 -0.486562 3.45614
thorax 1.62471 -0.241239 3.18262
lowerneck -17.8299 -7.0145 -14.537
upperneck 14.6717 -8.67249 14.8247
head 8.84881 -3.52551 6.336
lclavicle 2.61402e-14 3.18055e-15 0
lhumerus -46.9502 -11.7843 96.7888
lradius 26.9872 -0 0
lwrist 6.11502 0 0
lhand -4.96848 -20.59 0.122389
lfingers 7.12502 -0 0
lthumb 20.8163 8.22528 0.0933573
rclavicle 2.61402e-14 3.18055e-15 0
rhumerus -41.7127 10.1716 -81.4374
rradius 41.2715 -0 0
rwrist -21.9594 0 0
rhand -30.1028 -27.5244 0.0237449
rfingers 7.12502 -0 0
rthumb -3.41646 -57.4646 0.0220731
181
root 8.23316 16.6292 -11.7575 7.45174 6.31908 -2.40318
lfemur -21.4685 5.542 -15.3972
ltibia 44.0844 -0 0
lfoot -4.76779 12.4976 0.058379
ltoes -14.8242 0 0
rfemur -15.7292 3.05057 26.4283
rtibia 22.695 -0 0
rfoot -15.0053 2.30879 -0.0374327
rtoes -12.5896 0 0
lowerback -5.19431 -0.202209 0.745338
upperback -1.26896 -0.373672 3.45441
thorax 1.665 -0.184907 3.15613
lowerneck -17.7756 -7.00143 -14.5347
upperneck 14.6771 -8.66455 14.8335
head 8.83994 -3.52302 6.34083
lclavicle 2.61402e-14 3.18055e-15 0
lhumerus -47.0494 -11.7221 96.7622
lradius 27.0105 -0 0
lwrist 6.23258 0 0
lhand -5.24458 -20.7203 0.12553
lfingers 7.12502 -0 0
lthumb 20.5509 8.12186 0.095753
rclavicle 2.61402e-14 3.18055e-15 0
rhumerus -41.4823 10.2078 -81.4228
rradius 41.6948 -0 0
rwrist -22.1556 0 0
rhand -30.2217 -27.5831 0.0243538
rfingers 7.12502 -0 0
rthumb -3.53133 -57.5211 0.0226392
182
root 8.23401 16.6267 -11.6314 7.44628 6.13408 -2.48458
lfemur -22.3049 5.37 -15.4415
ltibia 43.2964 -0 0
lfoot -5.17434 12.4564 0.0595486
ltoes -14.9104 0 0
rfemur -15.0145 3.14592 26.5796
rtibia 22.2597 -0 0
rfoot -15.1228 2.40011 -0.0381815
rtoes -12.4563 0 0
lowerback -5.2319 -0.11375 0.804036
upperback -1.24535 -0.260782 3.45272
thorax 1.70526 -0.128556 3.12968
lowerneck -17.7213 -6.98837 -14.5324
upperneck 14.6824 -8.65661 14.8424
head 8.83106 -3.52053 6.34566
lclavicle 2.61402e-14 3.18055e-15 0
lhumerus -47.1486 -11.66 96.7355
lradius 27.0338 -0 0
lwrist 6.35014 0 0
lhand -5.52068 -20.8507 0.128043
lfingers 7.12502 -0 0
lthumb 20.2855 8.01844 0.0976697
rclavicle 2.61402e-14 3.18055e-15 0
rhumerus -41.252 10.2439 -81.4081
rradius 42.118 -0 0
rwrist -22.3518 0 0
rhand -30.3407 -27.6417 0.024841
rfingers 7.12502 -0 0
rthumb -3.6462 -57.5776 0.023092
